<svg xmlns="http://www.w3.org/2000/svg" xmlns:xlink="http://www.w3.org/1999/xlink" width="983" zoomAndPan="magnify" viewBox="0 0 737.25 263.250001" height="351" preserveAspectRatio="xMidYMid meet" version="1.0"><defs><g/></defs><g fill="#ffffff" fill-opacity="1"><g transform="translate(44.358308, 182.892314)"><g><path d="M 92.203125 -19.171875 L 92.203125 0 L 12.25 0 L 12.25 -103.265625 L 90.296875 -103.265625 L 90.296875 -84.09375 L 36 -84.09375 L 36 -61.671875 L 83.9375 -61.671875 L 83.9375 -43.078125 L 36 -43.078125 L 36 -19.171875 Z M 92.203125 -19.171875 "/></g></g></g><g fill="#ffffff" fill-opacity="1"><g transform="translate(143.351234, 182.892314)"><g><path d="M 106.953125 -103.265625 L 106.953125 0 L 87.34375 0 L 35.84375 -62.703125 L 35.84375 0 L 12.25 0 L 12.25 -103.265625 L 32.015625 -103.265625 L 83.359375 -40.578125 L 83.359375 -103.265625 Z M 106.953125 -103.265625 "/></g></g></g><g fill="#ffffff" fill-opacity="1"><g transform="translate(262.555847, 182.892314)"><g><path d="M 78.046875 0 L 58.125 -28.765625 L 36.140625 -28.765625 L 36.140625 0 L 12.25 0 L 12.25 -103.265625 L 56.953125 -103.265625 C 66.097656 -103.265625 74.035156 -101.738281 80.765625 -98.6875 C 87.503906 -95.644531 92.691406 -91.320312 96.328125 -85.71875 C 99.972656 -80.113281 101.796875 -73.472656 101.796875 -65.796875 C 101.796875 -58.128906 99.953125 -51.515625 96.265625 -45.953125 C 92.578125 -40.398438 87.335938 -36.144531 80.546875 -33.1875 L 103.71875 0 Z M 77.59375 -65.796875 C 77.59375 -71.597656 75.722656 -76.046875 71.984375 -79.140625 C 68.253906 -82.242188 62.800781 -83.796875 55.625 -83.796875 L 36.140625 -83.796875 L 36.140625 -47.796875 L 55.625 -47.796875 C 62.800781 -47.796875 68.253906 -49.367188 71.984375 -52.515625 C 75.722656 -55.660156 77.59375 -60.085938 77.59375 -65.796875 Z M 77.59375 -65.796875 "/></g></g></g><g fill="#ffffff" fill-opacity="1"><g transform="translate(370.990722, 182.892314)"><g><path d="M 12.25 -103.265625 L 36.140625 -103.265625 L 36.140625 0 L 12.25 0 Z M 12.25 -103.265625 "/></g></g></g><g fill="#ffffff" fill-opacity="1"><g transform="translate(419.380703, 182.892314)"><g><path d="M 61.671875 1.765625 C 51.140625 1.765625 41.617188 -0.519531 33.109375 -5.09375 C 24.609375 -9.664062 17.921875 -16.007812 13.046875 -24.125 C 8.179688 -32.238281 5.75 -41.410156 5.75 -51.640625 C 5.75 -61.867188 8.179688 -71.039062 13.046875 -79.15625 C 17.921875 -87.269531 24.609375 -93.613281 33.109375 -98.1875 C 41.617188 -102.757812 51.1875 -105.046875 61.8125 -105.046875 C 70.757812 -105.046875 78.847656 -103.46875 86.078125 -100.3125 C 93.304688 -97.164062 99.378906 -92.644531 104.296875 -86.75 L 88.96875 -72.578125 C 81.976562 -80.648438 73.320312 -84.6875 63 -84.6875 C 56.601562 -84.6875 50.894531 -83.285156 45.875 -80.484375 C 40.863281 -77.679688 36.957031 -73.769531 34.15625 -68.75 C 31.351562 -63.726562 29.953125 -58.023438 29.953125 -51.640625 C 29.953125 -45.242188 31.351562 -39.535156 34.15625 -34.515625 C 36.957031 -29.503906 40.863281 -25.597656 45.875 -22.796875 C 50.894531 -19.992188 56.601562 -18.59375 63 -18.59375 C 73.320312 -18.59375 81.976562 -22.671875 88.96875 -30.828125 L 104.296875 -16.671875 C 99.378906 -10.671875 93.28125 -6.097656 86 -2.953125 C 78.726562 0.191406 70.617188 1.765625 61.671875 1.765625 Z M 61.671875 1.765625 "/></g></g></g><g fill="#ffffff" fill-opacity="1"><g transform="translate(527.549185, 182.892314)"><g/></g></g><g fill="#ffffff" fill-opacity="1"><g transform="translate(569.300316, 182.892314)"><g/></g></g><g fill="#ffffff" fill-opacity="1"><g transform="translate(611.051447, 182.892314)"><g/></g></g><g fill="#ffffff" fill-opacity="1"><g transform="translate(652.808085, 182.892314)"><g><path d="M 19.328125 1.1875 C 15.296875 1.1875 11.898438 -0.1875 9.140625 -2.9375 C 6.390625 -5.695312 5.015625 -9.144531 5.015625 -13.28125 C 5.015625 -17.507812 6.390625 -20.925781 9.140625 -23.53125 C 11.898438 -26.132812 15.296875 -27.4375 19.328125 -27.4375 C 23.359375 -27.4375 26.75 -26.132812 29.5 -23.53125 C 32.257812 -20.925781 33.640625 -17.507812 33.640625 -13.28125 C 33.640625 -9.144531 32.257812 -5.695312 29.5 -2.9375 C 26.75 -0.1875 23.359375 1.1875 19.328125 1.1875 Z M 19.328125 1.1875 "/></g></g></g><g fill="#ffffff" fill-opacity="1"><g transform="translate(642.241712, 78.86297)"><g><path d="M -111.53125 103.265625 L -66.828125 0 L -43.234375 0 L 1.328125 103.265625 L -24.484375 103.265625 L -55.921875 29.5 L -87.78125 103.265625 Z M -111.53125 103.265625 "/></g></g></g></svg>