<svg xmlns="http://www.w3.org/2000/svg" xmlns:xlink="http://www.w3.org/1999/xlink" width="983" zoomAndPan="magnify" viewBox="0 0 737.25 263.250001" height="351" preserveAspectRatio="xMidYMid meet" version="1.0"><defs><g/></defs><g fill="#132043" fill-opacity="1"><g transform="translate(44.359815, 183.518136)"><g><path d="M 92.21875 -19.1875 L 92.21875 0 L 12.25 0 L 12.25 -103.28125 L 90.296875 -103.28125 L 90.296875 -84.109375 L 36 -84.109375 L 36 -61.671875 L 83.953125 -61.671875 L 83.953125 -43.078125 L 36 -43.078125 L 36 -19.1875 Z M 92.21875 -19.1875 "/></g></g></g><g fill="#132043" fill-opacity="1"><g transform="translate(143.359606, 183.518136)"><g><path d="M 106.96875 -103.28125 L 106.96875 0 L 87.34375 0 L 35.859375 -62.703125 L 35.859375 0 L 12.25 0 L 12.25 -103.28125 L 32.015625 -103.28125 L 83.359375 -40.578125 L 83.359375 -103.28125 Z M 106.96875 -103.28125 "/></g></g></g><g fill="#132043" fill-opacity="1"><g transform="translate(262.572453, 183.518136)"><g><path d="M 78.046875 0 L 58.140625 -28.765625 L 36.15625 -28.765625 L 36.15625 0 L 12.25 0 L 12.25 -103.28125 L 56.953125 -103.28125 C 66.097656 -103.28125 74.039062 -101.753906 80.78125 -98.703125 C 87.519531 -95.660156 92.707031 -91.332031 96.34375 -85.71875 C 99.988281 -80.113281 101.8125 -73.476562 101.8125 -65.8125 C 101.8125 -58.132812 99.960938 -51.515625 96.265625 -45.953125 C 92.578125 -40.398438 87.34375 -36.148438 80.5625 -33.203125 L 103.71875 0 Z M 77.609375 -65.8125 C 77.609375 -71.613281 75.738281 -76.0625 72 -79.15625 C 68.257812 -82.257812 62.800781 -83.8125 55.625 -83.8125 L 36.15625 -83.8125 L 36.15625 -47.8125 L 55.625 -47.8125 C 62.800781 -47.8125 68.257812 -49.382812 72 -52.53125 C 75.738281 -55.675781 77.609375 -60.101562 77.609375 -65.8125 Z M 77.609375 -65.8125 "/></g></g></g><g fill="#132043" fill-opacity="1"><g transform="translate(371.014847, 183.518136)"><g><path d="M 12.25 -103.28125 L 36.15625 -103.28125 L 36.15625 0 L 12.25 0 Z M 12.25 -103.28125 "/></g></g></g><g fill="#132043" fill-opacity="1"><g transform="translate(419.408184, 183.518136)"><g><path d="M 61.671875 1.765625 C 51.148438 1.765625 41.632812 -0.519531 33.125 -5.09375 C 24.613281 -9.664062 17.921875 -16.007812 13.046875 -24.125 C 8.179688 -32.238281 5.75 -41.410156 5.75 -51.640625 C 5.75 -61.867188 8.179688 -71.039062 13.046875 -79.15625 C 17.921875 -87.269531 24.613281 -93.613281 33.125 -98.1875 C 41.632812 -102.757812 51.203125 -105.046875 61.828125 -105.046875 C 70.773438 -105.046875 78.863281 -103.472656 86.09375 -100.328125 C 93.320312 -97.179688 99.394531 -92.65625 104.3125 -86.75 L 88.96875 -72.59375 C 81.988281 -80.65625 73.332031 -84.6875 63 -84.6875 C 56.601562 -84.6875 50.894531 -83.285156 45.875 -80.484375 C 40.863281 -77.679688 36.957031 -73.769531 34.15625 -68.75 C 31.351562 -63.738281 29.953125 -58.035156 29.953125 -51.640625 C 29.953125 -45.242188 31.351562 -39.535156 34.15625 -34.515625 C 36.957031 -29.503906 40.863281 -25.597656 45.875 -22.796875 C 50.894531 -19.992188 56.601562 -18.59375 63 -18.59375 C 73.332031 -18.59375 81.988281 -22.675781 88.96875 -30.84375 L 104.3125 -16.671875 C 99.394531 -10.671875 93.296875 -6.097656 86.015625 -2.953125 C 78.734375 0.191406 70.617188 1.765625 61.671875 1.765625 Z M 61.671875 1.765625 "/></g></g></g><g fill="#132043" fill-opacity="1"><g transform="translate(527.565175, 183.518136)"><g/></g></g><g fill="#132043" fill-opacity="1"><g transform="translate(569.319186, 183.518136)"><g/></g></g><g fill="#132043" fill-opacity="1"><g transform="translate(611.073197, 183.518136)"><g/></g></g><g fill="#132043" fill-opacity="1"><g transform="translate(652.833281, 183.518136)"><g><path d="M 19.328125 1.1875 C 15.296875 1.1875 11.898438 -0.1875 9.140625 -2.9375 C 6.390625 -5.695312 5.015625 -9.144531 5.015625 -13.28125 C 5.015625 -17.507812 6.390625 -20.925781 9.140625 -23.53125 C 11.898438 -26.132812 15.296875 -27.4375 19.328125 -27.4375 C 23.359375 -27.4375 26.75 -26.132812 29.5 -23.53125 C 32.257812 -20.925781 33.640625 -17.507812 33.640625 -13.28125 C 33.640625 -9.144531 32.257812 -5.695312 29.5 -2.9375 C 26.75 -0.1875 23.359375 1.1875 19.328125 1.1875 Z M 19.328125 1.1875 "/></g></g></g><g fill="#132043" fill-opacity="1"><g transform="translate(691.500464, 183.518136)"><g/></g></g><g fill="#132043" fill-opacity="1"><g transform="translate(733.254475, 183.518136)"><g/></g></g><g fill="#132043" fill-opacity="1"><g transform="translate(645.729256, 78.809585)"><g><path d="M -111.546875 103.28125 L -66.84375 0 L -43.234375 0 L 1.328125 103.28125 L -24.5 103.28125 L -55.921875 29.515625 L -87.796875 103.28125 Z M -111.546875 103.28125 "/></g></g></g></svg>